<svg version="1.1" xmlns="http://www.w3.org/2000/svg" xmlns:xlink="http://www.w3.org/1999/xlink" width="31.70771" height="31.80251"><g transform="translate(-222.84051,-166.59438)"><g data-paper-data="{&quot;isPaintingLayer&quot;:true}" fill="none" fill-rule="nonzero" stroke="none" stroke-width="0" stroke-linecap="butt" stroke-linejoin="miter" stroke-miterlimit="10" stroke-dasharray="" stroke-dashoffset="0" font-family="none" font-weight="none" font-size="none" text-anchor="none" style="mix-blend-mode: normal"><path d="M234.57681,172.54849l-0.55387,-5.40024l5.40024,-0.55387l0.55387,5.40024z" data-paper-data="{&quot;origPos&quot;:null,&quot;origRot&quot;:0}" fill="#593d29"/><path d="M246.09768,185.76557l0.70818,-5.38218l5.38218,0.70818l-0.70818,5.38218z" data-paper-data="{&quot;origPos&quot;:null,&quot;origRot&quot;:0}" fill="#593d29"/><path d="M235.34545,198.39689l-2.59949,-4.76572l4.76572,-2.59949l2.59949,4.76572z" data-paper-data="{&quot;origPos&quot;:null,&quot;origRot&quot;:0}" fill="#593d29"/><path d="M233.65298,181.26037l-1.62763,-5.17882l5.17882,-1.62763l1.62763,5.17882z" data-paper-data="{&quot;origPos&quot;:null,&quot;origRot&quot;:0}" fill="#593d29"/><path d="M242.91578,174.30235l-0.6467,-4.958l4.958,-0.6467l0.6467,4.958z" data-paper-data="{&quot;origPos&quot;:null,&quot;origRot&quot;:0}" fill="#966c4a"/><path d="M223.4872,184.30235l-0.64669,-4.958l4.958,-0.64669l0.6467,4.958z" data-paper-data="{&quot;origPos&quot;:null,&quot;origRot&quot;:0}" fill="#966c4a"/><path d="M226.85714,174.71429v-3.42857h3.42857v3.42857z" data-paper-data="{&quot;origPos&quot;:null}" fill="#878787"/><path d="M248.5462,192.19692l-1.17169,-3.22215l3.22215,-1.17169l1.17169,3.22215z" data-paper-data="{&quot;origPos&quot;:null,&quot;origRot&quot;:0}" fill="#878787"/><path d="M235.22444,189.54388l0.08883,-4.31945l4.31945,0.08883l-0.08883,4.31944z" data-paper-data="{&quot;origPos&quot;:null,&quot;origRot&quot;:0}" fill="#878787"/><path d="M250.41116,178.26251l-1.2451,-4.13706l4.13706,-1.24509l1.24509,4.13706z" data-paper-data="{&quot;origPos&quot;:null,&quot;origRot&quot;:0}" fill="#878787"/><path d="M242.32237,180.01664l-0.48186,-3.69426l3.69426,-0.48186l0.48186,3.69426z" data-paper-data="{&quot;origPos&quot;:null,&quot;origRot&quot;:0}" fill="#966c4a"/><path d="M239.52876,185.54608l-1.21769,-3.87447l3.87447,-1.21769l1.21769,3.87447z" data-paper-data="{&quot;origPos&quot;:null,&quot;origRot&quot;:0}" fill="#593d29"/><path d="M229.56187,185.95175l-0.51362,-3.38988l3.38988,-0.51362l0.51362,3.38988z" data-paper-data="{&quot;origPos&quot;:null,&quot;origRot&quot;:0}" fill="#966c4a"/><path d="M241.85714,192.42857v-3.28571h3.28571v3.28571z" fill="#966c4a"/><path d="M231.42857,190.42857v-1.85714h1.85714v1.85714z" fill="#966c4a"/></g></g></svg>