<svg version="1.1" xmlns="http://www.w3.org/2000/svg" xmlns:xlink="http://www.w3.org/1999/xlink" width="33.43177" height="32.97799"><g transform="translate(-221.93557,-161.50697)"><g data-paper-data="{&quot;isPaintingLayer&quot;:true}" fill="none" fill-rule="nonzero" stroke="none" stroke-width="0" stroke-linecap="butt" stroke-linejoin="miter" stroke-miterlimit="10" stroke-dasharray="" stroke-dashoffset="0" font-family="none" font-weight="none" font-size="none" text-anchor="none" style="mix-blend-mode: normal"><path d="M230.59954,193.65955l-1.01664,-5.33252l5.33252,-1.01664l1.01664,5.33252z" data-paper-data="{&quot;origPos&quot;:null,&quot;origRot&quot;:0,&quot;index&quot;:null}" fill="#593d29"/><path d="M227.58474,187.68458l-2.2206,-4.95361l4.95361,-2.2206l2.2206,4.95361z" data-paper-data="{&quot;origPos&quot;:null,&quot;origRot&quot;:0,&quot;index&quot;:null}" fill="#593d29"/><path d="M241.14822,193.35994l1.12502,-5.31072l5.31072,1.12502l-1.12502,5.31072z" data-paper-data="{&quot;origPos&quot;:null,&quot;origRot&quot;:0,&quot;index&quot;:null}" fill="#593d29"/><path d="M238.4567,166.93501l0.07554,-5.42804l5.42804,0.07554l-0.07554,5.42804z" data-paper-data="{&quot;origPos&quot;:null,&quot;origRot&quot;:0,&quot;index&quot;:null}" fill="#593d29"/><path d="M227.36696,174.37068l-0.80099,-4.93542l4.93542,-0.80099l0.80099,4.93542z" data-paper-data="{&quot;origPos&quot;:null,&quot;origRot&quot;:0,&quot;index&quot;:null}" fill="#966c4a"/><path d="M239.41761,175.81327l-0.80099,-4.93542l4.93542,-0.801l0.801,4.93542z" data-paper-data="{&quot;origPos&quot;:null,&quot;origRot&quot;:0,&quot;index&quot;:null}" fill="#966c4a"/><path d="M249.37807,187.34554l-0.98236,-3.28482l3.28482,-0.98236l0.98236,3.28482z" data-paper-data="{&quot;origPos&quot;:null,&quot;index&quot;:null,&quot;origRot&quot;:0}" fill="#878787"/><path d="M246.04102,175.12789l0.19935,-3.42277l3.42278,0.19934l-0.19935,3.42277z" data-paper-data="{&quot;origPos&quot;:null,&quot;origRot&quot;:0,&quot;index&quot;:null}" fill="#878787"/><path d="M239.9254,187.29117l-1.32273,-4.1129l4.1129,-1.32273l1.32273,4.1129z" data-paper-data="{&quot;origPos&quot;:null,&quot;origRot&quot;:0,&quot;index&quot;:null}" fill="#878787"/><path d="M221.93557,179.50387l0.00753,-4.32035l4.32035,0.00753l-0.00754,4.32036z" data-paper-data="{&quot;origPos&quot;:null,&quot;origRot&quot;:0,&quot;index&quot;:null}" fill="#878787"/><path d="M230.83074,179.47119l-0.59683,-3.67745l3.67745,-0.59683l0.59683,3.67745z" data-paper-data="{&quot;origPos&quot;:null,&quot;origRot&quot;:0,&quot;index&quot;:null}" fill="#966c4a"/><path d="M234.70805,183.31503l0.05652,-4.06093l4.06092,0.05651l-0.05651,4.06093z" data-paper-data="{&quot;origPos&quot;:null,&quot;origRot&quot;:0,&quot;index&quot;:null}" fill="#593d29"/><path d="M245.0393,181.38366l-0.47919,-3.39492l3.39492,-0.47919l0.4792,3.39491z" data-paper-data="{&quot;origPos&quot;:null,&quot;origRot&quot;:0,&quot;index&quot;:null}" fill="#966c4a"/><path d="M252.21939,181.85975l-0.94143,-3.14796l3.14795,-0.94143l0.94143,3.14796z" data-paper-data="{&quot;index&quot;:null,&quot;origPos&quot;:null,&quot;origRot&quot;:0}" fill="#966c4a"/><path d="M248.00636,168.54626l-0.53211,-1.77928l1.77929,-0.53212l0.53211,1.77928z" data-paper-data="{&quot;index&quot;:null,&quot;origPos&quot;:null,&quot;origRot&quot;:0}" fill="#966c4a"/></g></g></svg>