<svg version="1.1" xmlns="http://www.w3.org/2000/svg" xmlns:xlink="http://www.w3.org/1999/xlink" width="31.80138" height="31.69382"><g transform="translate(-223.56597,-162.79114)"><g data-paper-data="{&quot;isPaintingLayer&quot;:true}" fill="none" fill-rule="nonzero" stroke="none" stroke-width="0" stroke-linecap="butt" stroke-linejoin="miter" stroke-miterlimit="10" stroke-dasharray="" stroke-dashoffset="0" font-family="none" font-weight="none" font-size="none" text-anchor="none" style="mix-blend-mode: normal"><path d="M249.76235,185.75939l1.01664,5.33252l-5.33252,1.01664l-1.01664,-5.33252z" data-paper-data="{&quot;origPos&quot;:null,&quot;origRot&quot;:0,&quot;index&quot;:null}" fill="#593d29"/><path d="M251.34858,169.59152l2.2206,4.95361l-4.95361,2.2206l-2.2206,-4.95361z" data-paper-data="{&quot;origPos&quot;:null,&quot;origRot&quot;:0,&quot;index&quot;:null}" fill="#593d29"/><path d="M237.7851,163.91616l-1.12502,5.31072l-5.31072,-1.12502l1.12502,-5.31072z" data-paper-data="{&quot;origPos&quot;:null,&quot;origRot&quot;:0,&quot;index&quot;:null}" fill="#593d29"/><path d="M242.76233,182.34109l-0.07554,5.42804l-5.42804,-0.07554l0.07554,-5.42804z" data-paper-data="{&quot;origPos&quot;:null,&quot;origRot&quot;:0,&quot;index&quot;:null}" fill="#593d29"/><path d="M254.56636,177.76256l0.80099,4.93542l-4.93542,0.80099l-0.80099,-4.93542z" data-paper-data="{&quot;origPos&quot;:null,&quot;origRot&quot;:0,&quot;index&quot;:null}" fill="#966c4a"/><path d="M237.51571,188.74854l0.80099,4.93542l-4.93542,0.801l-0.801,-4.93542z" data-paper-data="{&quot;origPos&quot;:null,&quot;origRot&quot;:0,&quot;index&quot;:null}" fill="#966c4a"/><path d="M229.55525,169.93056l0.98236,3.28482l-3.28482,0.98236l-0.98236,-3.28482z" data-paper-data="{&quot;origPos&quot;:null,&quot;index&quot;:null,&quot;origRot&quot;:0}" fill="#878787"/><path d="M232.89229,182.14821l-0.19935,3.42277l-3.42278,-0.19934l0.19935,-3.42277z" data-paper-data="{&quot;origPos&quot;:null,&quot;origRot&quot;:0,&quot;index&quot;:null}" fill="#878787"/><path d="M239.00792,169.98493l1.32273,4.1129l-4.1129,1.32273l-1.32273,-4.1129z" data-paper-data="{&quot;origPos&quot;:null,&quot;origRot&quot;:0,&quot;index&quot;:null}" fill="#878787"/><path d="M245.85489,162.91508l-0.00753,4.32035l-4.32035,-0.00753l0.00754,-4.32036z" data-paper-data="{&quot;origPos&quot;:null,&quot;origRot&quot;:0,&quot;index&quot;:null}" fill="#878787"/><path d="M248.10258,177.80491l0.59683,3.67745l-3.67745,0.59683l-0.59683,-3.67745z" data-paper-data="{&quot;origPos&quot;:null,&quot;origRot&quot;:0,&quot;index&quot;:null}" fill="#966c4a"/><path d="M244.22527,173.96107l-0.05652,4.06093l-4.06092,-0.05651l0.05651,-4.06093z" data-paper-data="{&quot;origPos&quot;:null,&quot;origRot&quot;:0,&quot;index&quot;:null}" fill="#593d29"/><path d="M233.89402,175.89244l0.47919,3.39492l-3.39492,0.47919l-0.4792,-3.39491z" data-paper-data="{&quot;origPos&quot;:null,&quot;origRot&quot;:0,&quot;index&quot;:null}" fill="#966c4a"/><path d="M226.71392,175.41634l0.94143,3.14796l-3.14795,0.94143l-0.94143,-3.14796z" data-paper-data="{&quot;index&quot;:null,&quot;origPos&quot;:null,&quot;origRot&quot;:0}" fill="#966c4a"/><path d="M230.92696,188.72984l0.53211,1.77928l-1.77929,0.53212l-0.53211,-1.77928z" data-paper-data="{&quot;index&quot;:null,&quot;origPos&quot;:null,&quot;origRot&quot;:0}" fill="#966c4a"/></g></g></svg>