<svg version="1.1" xmlns="http://www.w3.org/2000/svg" xmlns:xlink="http://www.w3.org/1999/xlink" width="474.11574" height="349.09533" viewBox="0,0,474.11574,349.09533"><g transform="translate(-2.33102,-2.09258)"><g data-paper-data="{&quot;isPaintingLayer&quot;:true}" fill-rule="nonzero" stroke="#fff700" stroke-width="8" stroke-linejoin="miter" stroke-miterlimit="10" stroke-dasharray="" stroke-dashoffset="0" style="mix-blend-mode: normal"><path d="M6.93287,166.28975v-160.19717h465.51389v160.19717z" fill="#000000" stroke-linecap="butt"/><path d="M6.33102,347.18792v-164.67865h224.63425v164.67865z" fill="#000000" stroke-linecap="butt"/><path d="M248.28935,347.14625v-164.67865h221.83332v164.67865z" fill="#000000" stroke-linecap="butt"/><path d="M75.83565,263.77778h76.74537" fill="none" stroke-linecap="round"/><path d="M99.08334,289.82639l-25.76852,-25.76852l26.04861,-26.04861" fill="none" stroke-linecap="round"/><path d="M406.02315,263.17593h-76.74537" data-paper-data="{&quot;index&quot;:null}" fill="none" stroke-linecap="round"/><path d="M382.49538,237.40741l26.04861,26.04861l-25.76852,25.76852" data-paper-data="{&quot;index&quot;:null}" fill="none" stroke-linecap="round"/><path d="M132.41436,87.31944c0,0 5.84582,-39.76701 104.75463,-37.53241c104.59523,2.36308 104.19445,37.53241 104.19445,37.53241" fill="none" stroke-linecap="round"/><path d="M164.30325,94.11923c0,0 3.94945,-26.86672 70.77256,-25.35702c70.66487,1.5965 70.39411,25.35702 70.39411,25.35702" fill="none" stroke-linecap="round"/><path d="M190.0301,108.17975c0,0 2.39789,-16.31194 42.96907,-15.39533c42.90368,0.96931 42.73928,15.39533 42.73928,15.39533" fill="none" stroke-linecap="round"/><path d="M212.95602,120.54888c0,0 1.01871,-6.92991 18.25484,-6.5405c18.22706,0.41179 18.15722,6.5405 18.15722,6.5405" fill="none" stroke-linecap="round"/></g></g></svg>